{
	"asset":{
		"generator":"Khronos glTF Blender I/O v4.0.44",
		"version":"2.0"
	},
	"extensionsUsed":[
		"KHR_materials_specular",
		"KHR_materials_ior"
	],
	"scene":0,
	"scenes":[
		{
			"name":"Scene",
			"nodes":[
				0,
				1
			]
		}
	],
	"nodes":[
		{
			"mesh":0,
			"name":"BakingTin",
			"rotation":[
				0.70710688829422,
				0,
				0,
				0.7071066498756409
			],
			"scale":[
				0.009999999776482582,
				0.010000000707805157,
				0.010000000707805157
			]
		},
		{
			"mesh":1,
			"name":"Cylinder",
			"rotation":[
				0,
				-0.1117824837565422,
				0,
				0.993732750415802
			],
			"scale":[
				0.1931171417236328,
				0.19311712682247162,
				0.1931171417236328
			],
			"translation":[
				0,
				-0.005397270433604717,
				0
			]
		}
	],
	"materials":[
		{
			"doubleSided":true,
			"emissiveFactor":[
				0.20000000298023224,
				0.20000000298023224,
				0.20000000298023224
			],
			"emissiveTexture":{
				"index":0
			},
			"extensions":{
				"KHR_materials_specular":{
					"specularFactor":0.800000011920929
				},
				"KHR_materials_ior":{
					"ior":1.4500000476837158
				}
			},
			"name":"LiveTeachEXP_KitchenUtensils.001",
			"pbrMetallicRoughness":{
				"baseColorTexture":{
					"index":1
				},
				"metallicRoughnessTexture":{
					"index":2
				}
			}
		},
		{
			"doubleSided":true,
			"emissiveFactor":[
				0.05000000074505806,
				0.05000000074505806,
				0.05000000074505806
			],
			"emissiveTexture":{
				"index":3
			},
			"name":"Cream",
			"pbrMetallicRoughness":{
				"baseColorTexture":{
					"index":4
				},
				"metallicFactor":0.5129769444465637,
				"roughnessFactor":0.8493170738220215
			}
		}
	],
	"meshes":[
		{
			"name":"Mesh.001",
			"primitives":[
				{
					"attributes":{
						"POSITION":0,
						"NORMAL":1,
						"TEXCOORD_0":2
					},
					"indices":3,
					"material":0
				}
			]
		},
		{
			"name":"Cylinder",
			"primitives":[
				{
					"attributes":{
						"POSITION":4,
						"NORMAL":5,
						"TEXCOORD_0":6
					},
					"indices":7,
					"material":1
				}
			]
		}
	],
	"textures":[
		{
			"sampler":0,
			"source":0
		},
		{
			"sampler":0,
			"source":0
		},
		{
			"sampler":0,
			"source":1
		},
		{
			"sampler":0,
			"source":2
		},
		{
			"sampler":0,
			"source":2
		}
	],
	"images":[
		{
			"mimeType":"image/jpeg",
			"name":"LiveTeachEXP_KitchenUtensils_Albedo",
			"uri":"LiveTeachEXP_KitchenUtensils_Albedo.jpg"
		},
		{
			"mimeType":"image/png",
			"name":"LiveTeachEXP_KitchenUtensils_Metal-LiveTeachEXP_KitchenUten",
			"uri":"LiveTeachEXP_KitchenUtensils_Metal-LiveTeachEXP_KitchenUten.png"
		},
		{
			"mimeType":"image/png",
			"name":"lightTexture",
			"uri":"lightTexture.png"
		}
	],
	"accessors":[
		{
			"bufferView":0,
			"componentType":5126,
			"count":310,
			"max":[
				20.965181350708008,
				20.439544677734375,
				0
			],
			"min":[
				-20.965181350708008,
				-20.439544677734375,
				-11.535569190979004
			],
			"type":"VEC3"
		},
		{
			"bufferView":1,
			"componentType":5126,
			"count":310,
			"type":"VEC3"
		},
		{
			"bufferView":2,
			"componentType":5126,
			"count":310,
			"type":"VEC2"
		},
		{
			"bufferView":3,
			"componentType":5123,
			"count":840,
			"type":"SCALAR"
		},
		{
			"bufferView":4,
			"componentType":5126,
			"count":77,
			"max":[
				0.9749279022216797,
				0.5818831920623779,
				1
			],
			"min":[
				-0.9749279022216797,
				0.4560737609863281,
				-1
			],
			"type":"VEC3"
		},
		{
			"bufferView":5,
			"componentType":5126,
			"count":77,
			"type":"VEC3"
		},
		{
			"bufferView":6,
			"componentType":5126,
			"count":77,
			"type":"VEC2"
		},
		{
			"bufferView":7,
			"componentType":5123,
			"count":372,
			"type":"SCALAR"
		}
	],
	"bufferViews":[
		{
			"buffer":0,
			"byteLength":3720,
			"byteOffset":0,
			"target":34962
		},
		{
			"buffer":0,
			"byteLength":3720,
			"byteOffset":3720,
			"target":34962
		},
		{
			"buffer":0,
			"byteLength":2480,
			"byteOffset":7440,
			"target":34962
		},
		{
			"buffer":0,
			"byteLength":1680,
			"byteOffset":9920,
			"target":34963
		},
		{
			"buffer":0,
			"byteLength":924,
			"byteOffset":11600,
			"target":34962
		},
		{
			"buffer":0,
			"byteLength":924,
			"byteOffset":12524,
			"target":34962
		},
		{
			"buffer":0,
			"byteLength":616,
			"byteOffset":13448,
			"target":34962
		},
		{
			"buffer":0,
			"byteLength":744,
			"byteOffset":14064,
			"target":34963
		}
	],
	"samplers":[
		{
			"magFilter":9729,
			"minFilter":9729
		}
	],
	"buffers":[
		{
			"byteLength":14808,
			"uri":"bakingTinDough.bin"
		}
	]
}
