{
	"asset":{
		"generator":"Khronos glTF Blender I/O v4.0.44",
		"version":"2.0"
	},
	"scene":0,
	"scenes":[
		{
			"name":"Scene",
			"nodes":[
				0,
				1,
				2,
				3
			]
		}
	],
	"nodes":[
		{
			"mesh":0,
			"name":"JamCakeLayer",
			"rotation":[
				0.70710688829422,
				0,
				0,
				0.7071066498756409
			],
			"scale":[
				0.009999999776482582,
				0.010000000707805157,
				0.010000000707805157
			]
		},
		{
			"mesh":1,
			"name":"JamCakeBottomLayer",
			"rotation":[
				0.70710688829422,
				0,
				0,
				0.7071066498756409
			],
			"scale":[
				0.009999999776482582,
				0.010000000707805157,
				0.010000000707805157
			]
		},
		{
			"mesh":2,
			"name":"ChocolateCakeFilling",
			"rotation":[
				0.70710688829422,
				0,
				0,
				0.7071066498756409
			],
			"scale":[
				0.009999999776482582,
				0.010000000707805157,
				0.010000000707805157
			]
		},
		{
			"mesh":3,
			"name":"ChocolateCakeCreamLayer",
			"rotation":[
				0.70710688829422,
				0,
				0,
				0.7071066498756409
			],
			"scale":[
				0.009999999776482582,
				0.010000000707805157,
				0.010000000707805157
			],
			"translation":[
				0,
				0.0009259575745090842,
				0
			]
		}
	],
	"materials":[
		{
			"doubleSided":true,
			"name":"LiveTeachEXP_Cakes.001",
			"pbrMetallicRoughness":{
				"baseColorTexture":{
					"index":0
				},
				"metallicFactor":0,
				"roughnessFactor":0.5527864098548889
			}
		}
	],
	"meshes":[
		{
			"name":"Mesh.022",
			"primitives":[
				{
					"attributes":{
						"POSITION":0,
						"NORMAL":1,
						"TEXCOORD_0":2
					},
					"indices":3,
					"material":0
				}
			]
		},
		{
			"name":"Mesh.024",
			"primitives":[
				{
					"attributes":{
						"POSITION":4,
						"NORMAL":5,
						"TEXCOORD_0":6
					},
					"indices":3,
					"material":0
				}
			]
		},
		{
			"name":"Mesh.027",
			"primitives":[
				{
					"attributes":{
						"POSITION":7,
						"NORMAL":8,
						"TEXCOORD_0":9
					},
					"indices":10,
					"material":0
				}
			]
		},
		{
			"name":"Mesh.025",
			"primitives":[
				{
					"attributes":{
						"POSITION":11,
						"NORMAL":12,
						"TEXCOORD_0":13
					},
					"indices":14,
					"material":0
				}
			]
		}
	],
	"textures":[
		{
			"sampler":0,
			"source":0
		}
	],
	"images":[
		{
			"mimeType":"image/jpeg",
			"name":"LiveTeachEXP_Cakes_Albedo",
			"uri":"LiveTeachEXP_Cakes_Albedo.jpg"
		}
	],
	"accessors":[
		{
			"bufferView":0,
			"componentType":5126,
			"count":168,
			"max":[
				13.27545166015625,
				13.275928497314453,
				-8.695381164550781
			],
			"min":[
				-13.27642822265625,
				-13.275959014892578,
				-14.944114685058594
			],
			"type":"VEC3"
		},
		{
			"bufferView":1,
			"componentType":5126,
			"count":168,
			"type":"VEC3"
		},
		{
			"bufferView":2,
			"componentType":5126,
			"count":168,
			"type":"VEC2"
		},
		{
			"bufferView":3,
			"componentType":5123,
			"count":480,
			"type":"SCALAR"
		},
		{
			"bufferView":4,
			"componentType":5126,
			"count":168,
			"max":[
				13.27545166015625,
				13.275928497314453,
				-0.8235702514648438
			],
			"min":[
				-13.27642822265625,
				-13.275959014892578,
				-7.072303771972656
			],
			"type":"VEC3"
		},
		{
			"bufferView":5,
			"componentType":5126,
			"count":168,
			"type":"VEC3"
		},
		{
			"bufferView":6,
			"componentType":5126,
			"count":168,
			"type":"VEC2"
		},
		{
			"bufferView":7,
			"componentType":5126,
			"count":166,
			"max":[
				13.07568359375,
				13.076107025146484,
				-7.043235778808594
			],
			"min":[
				-13.0765380859375,
				-13.076129913330078,
				-8.682853698730469
			],
			"type":"VEC3"
		},
		{
			"bufferView":8,
			"componentType":5126,
			"count":166,
			"type":"VEC3"
		},
		{
			"bufferView":9,
			"componentType":5126,
			"count":166,
			"type":"VEC2"
		},
		{
			"bufferView":10,
			"componentType":5123,
			"count":360,
			"type":"SCALAR"
		},
		{
			"bufferView":11,
			"componentType":5126,
			"count":641,
			"max":[
				13.743927001953125,
				13.744056701660156,
				-8.596321105957031
			],
			"min":[
				-13.743865966796875,
				-13.746044158935547,
				-15.078117370605469
			],
			"type":"VEC3"
		},
		{
			"bufferView":12,
			"componentType":5126,
			"count":641,
			"type":"VEC3"
		},
		{
			"bufferView":13,
			"componentType":5126,
			"count":641,
			"type":"VEC2"
		},
		{
			"bufferView":14,
			"componentType":5123,
			"count":3600,
			"type":"SCALAR"
		}
	],
	"bufferViews":[
		{
			"buffer":0,
			"byteLength":2016,
			"byteOffset":0,
			"target":34962
		},
		{
			"buffer":0,
			"byteLength":2016,
			"byteOffset":2016,
			"target":34962
		},
		{
			"buffer":0,
			"byteLength":1344,
			"byteOffset":4032,
			"target":34962
		},
		{
			"buffer":0,
			"byteLength":960,
			"byteOffset":5376,
			"target":34963
		},
		{
			"buffer":0,
			"byteLength":2016,
			"byteOffset":6336,
			"target":34962
		},
		{
			"buffer":0,
			"byteLength":2016,
			"byteOffset":8352,
			"target":34962
		},
		{
			"buffer":0,
			"byteLength":1344,
			"byteOffset":10368,
			"target":34962
		},
		{
			"buffer":0,
			"byteLength":1992,
			"byteOffset":11712,
			"target":34962
		},
		{
			"buffer":0,
			"byteLength":1992,
			"byteOffset":13704,
			"target":34962
		},
		{
			"buffer":0,
			"byteLength":1328,
			"byteOffset":15696,
			"target":34962
		},
		{
			"buffer":0,
			"byteLength":720,
			"byteOffset":17024,
			"target":34963
		},
		{
			"buffer":0,
			"byteLength":7692,
			"byteOffset":17744,
			"target":34962
		},
		{
			"buffer":0,
			"byteLength":7692,
			"byteOffset":25436,
			"target":34962
		},
		{
			"buffer":0,
			"byteLength":5128,
			"byteOffset":33128,
			"target":34962
		},
		{
			"buffer":0,
			"byteLength":7200,
			"byteOffset":38256,
			"target":34963
		}
	],
	"samplers":[
		{
			"magFilter":9729,
			"minFilter":9729
		}
	],
	"buffers":[
		{
			"byteLength":45456,
			"uri":"chocolateCake.bin"
		}
	]
}
