{
	"asset":{
		"generator":"Khronos glTF Blender I/O v4.0.44",
		"version":"2.0"
	},
	"scene":0,
	"scenes":[
		{
			"name":"Scene",
			"nodes":[
				0
			]
		}
	],
	"nodes":[
		{
			"mesh":0,
			"name":"JamCakeBottomLayer.001",
			"rotation":[
				0.70710688829422,
				0,
				0,
				0.7071066498756409
			],
			"scale":[
				0.009999999776482582,
				0.010000000707805157,
				0.010000000707805157
			]
		}
	],
	"materials":[
		{
			"doubleSided":true,
			"name":"LiveTeachEXP_Cakes.002",
			"pbrMetallicRoughness":{
				"baseColorTexture":{
					"index":0
				},
				"metallicFactor":0,
				"roughnessFactor":0.5527864098548889
			}
		}
	],
	"meshes":[
		{
			"name":"Mesh.003",
			"primitives":[
				{
					"attributes":{
						"POSITION":0,
						"NORMAL":1,
						"TEXCOORD_0":2
					},
					"indices":3,
					"material":0
				}
			]
		}
	],
	"textures":[
		{
			"sampler":0,
			"source":0
		}
	],
	"images":[
		{
			"mimeType":"image/jpeg",
			"name":"LiveTeachEXP_Cakes_Albedo",
			"uri":"LiveTeachEXP_Cakes_Albedo.jpg"
		}
	],
	"accessors":[
		{
			"bufferView":0,
			"componentType":5126,
			"count":336,
			"max":[
				13.27545166015625,
				13.275928497314453,
				-0.8235702514648438
			],
			"min":[
				-13.656510353088379,
				-13.858438491821289,
				-13.282983779907227
			],
			"type":"VEC3"
		},
		{
			"bufferView":1,
			"componentType":5126,
			"count":336,
			"type":"VEC3"
		},
		{
			"bufferView":2,
			"componentType":5126,
			"count":336,
			"type":"VEC2"
		},
		{
			"bufferView":3,
			"componentType":5123,
			"count":960,
			"type":"SCALAR"
		}
	],
	"bufferViews":[
		{
			"buffer":0,
			"byteLength":4032,
			"byteOffset":0,
			"target":34962
		},
		{
			"buffer":0,
			"byteLength":4032,
			"byteOffset":4032,
			"target":34962
		},
		{
			"buffer":0,
			"byteLength":2688,
			"byteOffset":8064,
			"target":34962
		},
		{
			"buffer":0,
			"byteLength":1920,
			"byteOffset":10752,
			"target":34963
		}
	],
	"samplers":[
		{
			"magFilter":9729,
			"minFilter":9729
		}
	],
	"buffers":[
		{
			"byteLength":12672,
			"uri":"cookedSponges.bin"
		}
	]
}
