{
	"asset":{
		"generator":"Khronos glTF Blender I/O v4.0.44",
		"version":"2.0"
	},
	"scene":0,
	"scenes":[
		{
			"name":"Scene",
			"nodes":[
				0,
				1,
				2
			]
		}
	],
	"nodes":[
		{
			"mesh":0,
			"name":"JamCakeLayer",
			"rotation":[
				0.70710688829422,
				0,
				0,
				0.7071066498756409
			],
			"scale":[
				0.009999999776482582,
				0.010000000707805157,
				0.010000000707805157
			]
		},
		{
			"mesh":1,
			"name":"JamCakeCreamLayer",
			"rotation":[
				0.70710688829422,
				0,
				0,
				0.7071066498756409
			],
			"scale":[
				0.009999999776482582,
				0.010000000707805157,
				0.010000000707805157
			]
		},
		{
			"mesh":2,
			"name":"JamCakeBottomLayer",
			"rotation":[
				0.70710688829422,
				0,
				0,
				0.7071066498756409
			],
			"scale":[
				0.009999999776482582,
				0.010000000707805157,
				0.010000000707805157
			]
		}
	],
	"materials":[
		{
			"doubleSided":true,
			"name":"LiveTeachEXP_Cakes.003",
			"pbrMetallicRoughness":{
				"baseColorTexture":{
					"index":0
				},
				"metallicFactor":0,
				"roughnessFactor":0.5527864098548889
			}
		}
	],
	"meshes":[
		{
			"name":"Mesh.002",
			"primitives":[
				{
					"attributes":{
						"POSITION":0,
						"NORMAL":1,
						"TEXCOORD_0":2
					},
					"indices":3,
					"material":0
				}
			]
		},
		{
			"name":"Mesh.021",
			"primitives":[
				{
					"attributes":{
						"POSITION":4,
						"NORMAL":5,
						"TEXCOORD_0":6
					},
					"indices":7,
					"material":0
				}
			]
		},
		{
			"name":"Mesh.004",
			"primitives":[
				{
					"attributes":{
						"POSITION":8,
						"NORMAL":9,
						"TEXCOORD_0":10
					},
					"indices":3,
					"material":0
				}
			]
		}
	],
	"textures":[
		{
			"sampler":0,
			"source":0
		}
	],
	"images":[
		{
			"mimeType":"image/jpeg",
			"name":"LiveTeachEXP_Cakes_Albedo",
			"uri":"LiveTeachEXP_Cakes_Albedo.jpg"
		}
	],
	"accessors":[
		{
			"bufferView":0,
			"componentType":5126,
			"count":168,
			"max":[
				13.27545166015625,
				13.275934219360352,
				-7.088196754455566
			],
			"min":[
				-13.27642822265625,
				-13.27595329284668,
				-13.336930274963379
			],
			"type":"VEC3"
		},
		{
			"bufferView":1,
			"componentType":5126,
			"count":168,
			"type":"VEC3"
		},
		{
			"bufferView":2,
			"componentType":5126,
			"count":168,
			"type":"VEC2"
		},
		{
			"bufferView":3,
			"componentType":5123,
			"count":480,
			"type":"SCALAR"
		},
		{
			"bufferView":4,
			"componentType":5126,
			"count":641,
			"max":[
				13.743927001953125,
				13.74405288696289,
				-7.3368682861328125
			],
			"min":[
				-13.743896484375,
				-13.746047973632812,
				-13.818679809570312
			],
			"type":"VEC3"
		},
		{
			"bufferView":5,
			"componentType":5126,
			"count":641,
			"type":"VEC3"
		},
		{
			"bufferView":6,
			"componentType":5126,
			"count":641,
			"type":"VEC2"
		},
		{
			"bufferView":7,
			"componentType":5123,
			"count":3600,
			"type":"SCALAR"
		},
		{
			"bufferView":8,
			"componentType":5126,
			"count":168,
			"max":[
				13.27545166015625,
				13.275934219360352,
				-0.8235583305358887
			],
			"min":[
				-13.27642822265625,
				-13.27595329284668,
				-7.072291851043701
			],
			"type":"VEC3"
		},
		{
			"bufferView":9,
			"componentType":5126,
			"count":168,
			"type":"VEC3"
		},
		{
			"bufferView":10,
			"componentType":5126,
			"count":168,
			"type":"VEC2"
		}
	],
	"bufferViews":[
		{
			"buffer":0,
			"byteLength":2016,
			"byteOffset":0,
			"target":34962
		},
		{
			"buffer":0,
			"byteLength":2016,
			"byteOffset":2016,
			"target":34962
		},
		{
			"buffer":0,
			"byteLength":1344,
			"byteOffset":4032,
			"target":34962
		},
		{
			"buffer":0,
			"byteLength":960,
			"byteOffset":5376,
			"target":34963
		},
		{
			"buffer":0,
			"byteLength":7692,
			"byteOffset":6336,
			"target":34962
		},
		{
			"buffer":0,
			"byteLength":7692,
			"byteOffset":14028,
			"target":34962
		},
		{
			"buffer":0,
			"byteLength":5128,
			"byteOffset":21720,
			"target":34962
		},
		{
			"buffer":0,
			"byteLength":7200,
			"byteOffset":26848,
			"target":34963
		},
		{
			"buffer":0,
			"byteLength":2016,
			"byteOffset":34048,
			"target":34962
		},
		{
			"buffer":0,
			"byteLength":2016,
			"byteOffset":36064,
			"target":34962
		},
		{
			"buffer":0,
			"byteLength":1344,
			"byteOffset":38080,
			"target":34962
		}
	],
	"samplers":[
		{
			"magFilter":9729,
			"minFilter":9729
		}
	],
	"buffers":[
		{
			"byteLength":39424,
			"uri":"creamCake.bin"
		}
	]
}
