{
	"asset":{
		"generator":"Khronos glTF Blender I/O v4.0.44",
		"version":"2.0"
	},
	"extensionsUsed":[
		"KHR_materials_specular",
		"KHR_materials_ior"
	],
	"scene":0,
	"scenes":[
		{
			"name":"Scene",
			"nodes":[
				0,
				1,
				2,
				3,
				4,
				5,
				6
			]
		}
	],
	"nodes":[
		{
			"mesh":0,
			"name":"EggBox.001",
			"rotation":[
				0.70710688829422,
				0,
				0,
				0.7071066498756409
			],
			"scale":[
				0.009999999776482582,
				0.010000000707805157,
				0.010000000707805157
			]
		},
		{
			"mesh":1,
			"name":"Egg07",
			"rotation":[
				0.70710688829422,
				0,
				0,
				0.7071066498756409
			],
			"scale":[
				0.009999999776482582,
				0.010000000707805157,
				0.010000000707805157
			]
		},
		{
			"mesh":2,
			"name":"Egg06",
			"rotation":[
				0.70710688829422,
				0,
				0,
				0.7071066498756409
			],
			"scale":[
				0.009999999776482582,
				0.010000000707805157,
				0.010000000707805157
			],
			"translation":[
				-0.003363915951922536,
				0,
				0
			]
		},
		{
			"mesh":3,
			"name":"Egg05.001",
			"rotation":[
				0.70710688829422,
				0,
				0,
				0.7071066498756409
			],
			"scale":[
				0.009999999776482582,
				0.010000000707805157,
				0.010000000707805157
			]
		},
		{
			"mesh":4,
			"name":"Egg04.001",
			"rotation":[
				0.70710688829422,
				0,
				0,
				0.7071066498756409
			],
			"scale":[
				0.009999999776482582,
				0.010000000707805157,
				0.010000000707805157
			]
		},
		{
			"mesh":5,
			"name":"Egg03.001",
			"rotation":[
				0.70710688829422,
				0,
				0,
				0.7071066498756409
			],
			"scale":[
				0.009999999776482582,
				0.010000000707805157,
				0.010000000707805157
			],
			"translation":[
				-0.003363915951922536,
				0,
				0
			]
		},
		{
			"mesh":6,
			"name":"Egg02.001",
			"rotation":[
				0.70710688829422,
				0,
				0,
				0.7071066498756409
			],
			"scale":[
				0.009999999776482582,
				0.010000000707805157,
				0.010000000707805157
			]
		}
	],
	"materials":[
		{
			"extensions":{
				"KHR_materials_specular":{
					"specularColorFactor":[
						0.0,
						0.0,
						0.0
					]
				},
				"KHR_materials_ior":{
					"ior":1.4500000476837158
				}
			},
			"name":"LiveTeachEXP_FoodItems.005",
			"pbrMetallicRoughness":{
				"baseColorTexture":{
					"index":0
				},
				"metallicFactor":0
			}
		}
	],
	"meshes":[
		{
			"name":"Mesh.019",
			"primitives":[
				{
					"attributes":{
						"POSITION":0,
						"NORMAL":1,
						"TEXCOORD_0":2
					},
					"indices":3,
					"material":0
				}
			]
		},
		{
			"name":"Mesh.018",
			"primitives":[
				{
					"attributes":{
						"POSITION":4,
						"NORMAL":5,
						"TEXCOORD_0":6
					},
					"indices":7,
					"material":0
				}
			]
		},
		{
			"name":"Mesh.017",
			"primitives":[
				{
					"attributes":{
						"POSITION":8,
						"NORMAL":9,
						"TEXCOORD_0":10
					},
					"indices":7,
					"material":0
				}
			]
		},
		{
			"name":"Mesh.016",
			"primitives":[
				{
					"attributes":{
						"POSITION":11,
						"NORMAL":12,
						"TEXCOORD_0":13
					},
					"indices":7,
					"material":0
				}
			]
		},
		{
			"name":"Mesh.015",
			"primitives":[
				{
					"attributes":{
						"POSITION":14,
						"NORMAL":15,
						"TEXCOORD_0":16
					},
					"indices":7,
					"material":0
				}
			]
		},
		{
			"name":"Mesh.014",
			"primitives":[
				{
					"attributes":{
						"POSITION":17,
						"NORMAL":18,
						"TEXCOORD_0":19
					},
					"indices":7,
					"material":0
				}
			]
		},
		{
			"name":"Mesh.010",
			"primitives":[
				{
					"attributes":{
						"POSITION":20,
						"NORMAL":21,
						"TEXCOORD_0":22
					},
					"indices":7,
					"material":0
				}
			]
		}
	],
	"textures":[
		{
			"sampler":0,
			"source":0
		}
	],
	"images":[
		{
			"mimeType":"image/jpeg",
			"name":"LiveTeachEXP_FoodItems_Albedo",
			"uri":"LiveTeachEXP_FoodItems_Albedo.jpg"
		}
	],
	"accessors":[
		{
			"bufferView":0,
			"componentType":5126,
			"count":2883,
			"max":[
				10.022247314453125,
				6.568032264709473,
				4.2330364635745354e-07
			],
			"min":[
				-10.179153442382812,
				-17.544771194458008,
				-14.183721542358398
			],
			"type":"VEC3"
		},
		{
			"bufferView":1,
			"componentType":5126,
			"count":2883,
			"type":"VEC3"
		},
		{
			"bufferView":2,
			"componentType":5126,
			"count":2883,
			"type":"VEC2"
		},
		{
			"bufferView":3,
			"componentType":5123,
			"count":4020,
			"type":"SCALAR"
		},
		{
			"bufferView":4,
			"componentType":5126,
			"count":137,
			"max":[
				-4.3973541259765625,
				-1.0843091011047363,
				-0.022953033447265625
			],
			"min":[
				-9.567138671875,
				-6.124500751495361,
				-7.974475860595703
			],
			"type":"VEC3"
		},
		{
			"bufferView":5,
			"componentType":5126,
			"count":137,
			"type":"VEC3"
		},
		{
			"bufferView":6,
			"componentType":5126,
			"count":137,
			"type":"VEC2"
		},
		{
			"bufferView":7,
			"componentType":5123,
			"count":756,
			"type":"SCALAR"
		},
		{
			"bufferView":8,
			"componentType":5126,
			"count":137,
			"max":[
				2.937288284301758,
				-1.0843091011047363,
				-0.022953033447265625
			],
			"min":[
				-2.2324962615966797,
				-6.124500751495361,
				-7.974475860595703
			],
			"type":"VEC3"
		},
		{
			"bufferView":9,
			"componentType":5126,
			"count":137,
			"type":"VEC3"
		},
		{
			"bufferView":10,
			"componentType":5126,
			"count":137,
			"type":"VEC2"
		},
		{
			"bufferView":11,
			"componentType":5126,
			"count":137,
			"max":[
				9.479206085205078,
				-1.0843091011047363,
				-0.022953033447265625
			],
			"min":[
				4.309421539306641,
				-6.124500751495361,
				-7.974475860595703
			],
			"type":"VEC3"
		},
		{
			"bufferView":12,
			"componentType":5126,
			"count":137,
			"type":"VEC3"
		},
		{
			"bufferView":13,
			"componentType":5126,
			"count":137,
			"type":"VEC2"
		},
		{
			"bufferView":14,
			"componentType":5126,
			"count":137,
			"max":[
				9.479206085205078,
				5.903789520263672,
				-0.022953033447265625
			],
			"min":[
				4.309421539306641,
				0.8635978698730469,
				-7.974475860595703
			],
			"type":"VEC3"
		},
		{
			"bufferView":15,
			"componentType":5126,
			"count":137,
			"type":"VEC3"
		},
		{
			"bufferView":16,
			"componentType":5126,
			"count":137,
			"type":"VEC2"
		},
		{
			"bufferView":17,
			"componentType":5126,
			"count":137,
			"max":[
				2.937288284301758,
				5.903789520263672,
				-0.022953033447265625
			],
			"min":[
				-2.2324962615966797,
				0.8635978698730469,
				-7.974475860595703
			],
			"type":"VEC3"
		},
		{
			"bufferView":18,
			"componentType":5126,
			"count":137,
			"type":"VEC3"
		},
		{
			"bufferView":19,
			"componentType":5126,
			"count":137,
			"type":"VEC2"
		},
		{
			"bufferView":20,
			"componentType":5126,
			"count":137,
			"max":[
				-4.3973541259765625,
				5.903789520263672,
				-0.022953033447265625
			],
			"min":[
				-9.567138671875,
				0.8635978698730469,
				-7.974475860595703
			],
			"type":"VEC3"
		},
		{
			"bufferView":21,
			"componentType":5126,
			"count":137,
			"type":"VEC3"
		},
		{
			"bufferView":22,
			"componentType":5126,
			"count":137,
			"type":"VEC2"
		}
	],
	"bufferViews":[
		{
			"buffer":0,
			"byteLength":34596,
			"byteOffset":0,
			"target":34962
		},
		{
			"buffer":0,
			"byteLength":34596,
			"byteOffset":34596,
			"target":34962
		},
		{
			"buffer":0,
			"byteLength":23064,
			"byteOffset":69192,
			"target":34962
		},
		{
			"buffer":0,
			"byteLength":8040,
			"byteOffset":92256,
			"target":34963
		},
		{
			"buffer":0,
			"byteLength":1644,
			"byteOffset":100296,
			"target":34962
		},
		{
			"buffer":0,
			"byteLength":1644,
			"byteOffset":101940,
			"target":34962
		},
		{
			"buffer":0,
			"byteLength":1096,
			"byteOffset":103584,
			"target":34962
		},
		{
			"buffer":0,
			"byteLength":1512,
			"byteOffset":104680,
			"target":34963
		},
		{
			"buffer":0,
			"byteLength":1644,
			"byteOffset":106192,
			"target":34962
		},
		{
			"buffer":0,
			"byteLength":1644,
			"byteOffset":107836,
			"target":34962
		},
		{
			"buffer":0,
			"byteLength":1096,
			"byteOffset":109480,
			"target":34962
		},
		{
			"buffer":0,
			"byteLength":1644,
			"byteOffset":110576,
			"target":34962
		},
		{
			"buffer":0,
			"byteLength":1644,
			"byteOffset":112220,
			"target":34962
		},
		{
			"buffer":0,
			"byteLength":1096,
			"byteOffset":113864,
			"target":34962
		},
		{
			"buffer":0,
			"byteLength":1644,
			"byteOffset":114960,
			"target":34962
		},
		{
			"buffer":0,
			"byteLength":1644,
			"byteOffset":116604,
			"target":34962
		},
		{
			"buffer":0,
			"byteLength":1096,
			"byteOffset":118248,
			"target":34962
		},
		{
			"buffer":0,
			"byteLength":1644,
			"byteOffset":119344,
			"target":34962
		},
		{
			"buffer":0,
			"byteLength":1644,
			"byteOffset":120988,
			"target":34962
		},
		{
			"buffer":0,
			"byteLength":1096,
			"byteOffset":122632,
			"target":34962
		},
		{
			"buffer":0,
			"byteLength":1644,
			"byteOffset":123728,
			"target":34962
		},
		{
			"buffer":0,
			"byteLength":1644,
			"byteOffset":125372,
			"target":34962
		},
		{
			"buffer":0,
			"byteLength":1096,
			"byteOffset":127016,
			"target":34962
		}
	],
	"samplers":[
		{
			"magFilter":9729,
			"minFilter":9729
		}
	],
	"buffers":[
		{
			"byteLength":128112,
			"uri":"eggs.bin"
		}
	]
}
