{
	"asset":{
		"generator":"Khronos glTF Blender I/O v4.0.44",
		"version":"2.0"
	},
	"extensionsUsed":[
		"KHR_materials_specular",
		"KHR_materials_ior"
	],
	"scene":0,
	"scenes":[
		{
			"name":"Scene",
			"nodes":[
				0,
				1,
				2,
				3,
				4,
				5,
				6
			]
		}
	],
	"nodes":[
		{
			"mesh":0,
			"name":"MixingBowl",
			"rotation":[
				0.70710688829422,
				0,
				0,
				0.7071066498756409
			],
			"scale":[
				0.009999999776482582,
				0.009999999776482582,
				0.009999999776482582
			]
		},
		{
			"mesh":1,
			"name":"Egg07",
			"rotation":[
				-0.006516425870358944,
				-0.21278631687164307,
				-0.02061161771416664,
				0.9768596291542053
			],
			"scale":[
				0.009999998845160007,
				0.009999999776482582,
				0.009999999776482582
			],
			"translation":[
				0.025048114359378815,
				0.09348280727863312,
				-0.021750517189502716
			]
		},
		{
			"mesh":2,
			"name":"Egg06",
			"rotation":[
				0.4814097583293915,
				-0.1831221580505371,
				-0.12231205403804779,
				0.8483813405036926
			],
			"scale":[
				0.009999999776482582,
				0.009999999776482582,
				0.009999999776482582
			],
			"translation":[
				0.0007887535030022264,
				0.06319087743759155,
				-0.05497875064611435
			]
		},
		{
			"mesh":3,
			"name":"Egg05.001",
			"rotation":[
				0.012219310738146305,
				0.09923066198825836,
				0.13427481055259705,
				0.9858875274658203
			],
			"scale":[
				0.009999999776482582,
				0.009999999776482582,
				0.009999999776482582
			],
			"translation":[
				0.06957186758518219,
				0.07410961389541626,
				-0.05297937989234924
			]
		},
		{
			"mesh":4,
			"name":"Egg04.001",
			"rotation":[
				0.0812322348356247,
				-0.2560204267501831,
				-0.3342660367488861,
				0.9033942222595215
			],
			"scale":[
				0.009999999776482582,
				0.009999999776482582,
				0.009999999776482582
			],
			"translation":[
				0.06957186758518219,
				0.08044913411140442,
				0.03462524712085724
			]
		},
		{
			"mesh":5,
			"name":"Egg03.001",
			"rotation":[
				-0.16108809411525726,
				0.30567601323127747,
				-0.15666532516479492,
				0.9252399802207947
			],
			"scale":[
				0.009999999776482582,
				0.009999999776482582,
				0.010000000707805157
			],
			"translation":[
				0.0007887535030022264,
				0.06222694367170334,
				0.025616168975830078
			]
		},
		{
			"mesh":6,
			"name":"Egg02.001",
			"rotation":[
				-0.1048680916428566,
				-0.15933655202388763,
				0.25567102432250977,
				0.9477589726448059
			],
			"scale":[
				0.009999998845160007,
				0.009999999776482582,
				0.009999998845160007
			],
			"translation":[
				-0.059243094176054,
				0.06789205968379974,
				0.03462524712085724
			]
		}
	],
	"materials":[
		{
			"doubleSided":true,
			"emissiveFactor":[
				0.20000000298023224,
				0.20000000298023224,
				0.20000000298023224
			],
			"emissiveTexture":{
				"index":0
			},
			"extensions":{
				"KHR_materials_specular":{
					"specularColorFactor":[
						0.9485430717468262,
						0.9485430717468262,
						0.9485430717468262
					]
				},
				"KHR_materials_ior":{
					"ior":1.4500000476837158
				}
			},
			"name":"LiveTeachEXP_KitchenUtensils.001",
			"pbrMetallicRoughness":{
				"baseColorTexture":{
					"index":1
				},
				"metallicRoughnessTexture":{
					"index":2
				}
			}
		},
		{
			"extensions":{
				"KHR_materials_specular":{
					"specularColorFactor":[
						0.0,
						0.0,
						0.0
					]
				},
				"KHR_materials_ior":{
					"ior":1.4500000476837158
				}
			},
			"name":"LiveTeachEXP_FoodItems",
			"pbrMetallicRoughness":{
				"baseColorTexture":{
					"index":3
				},
				"metallicFactor":0
			}
		}
	],
	"meshes":[
		{
			"name":"Mesh.001",
			"primitives":[
				{
					"attributes":{
						"POSITION":0,
						"NORMAL":1,
						"TEXCOORD_0":2
					},
					"indices":3,
					"material":0
				}
			]
		},
		{
			"name":"Mesh.018",
			"primitives":[
				{
					"attributes":{
						"POSITION":4,
						"NORMAL":5,
						"TEXCOORD_0":6
					},
					"indices":7,
					"material":1
				}
			]
		},
		{
			"name":"Mesh.017",
			"primitives":[
				{
					"attributes":{
						"POSITION":8,
						"NORMAL":9,
						"TEXCOORD_0":10
					},
					"indices":7,
					"material":1
				}
			]
		},
		{
			"name":"Mesh.016",
			"primitives":[
				{
					"attributes":{
						"POSITION":11,
						"NORMAL":12,
						"TEXCOORD_0":13
					},
					"indices":7,
					"material":1
				}
			]
		},
		{
			"name":"Mesh.015",
			"primitives":[
				{
					"attributes":{
						"POSITION":14,
						"NORMAL":15,
						"TEXCOORD_0":16
					},
					"indices":7,
					"material":1
				}
			]
		},
		{
			"name":"Mesh.014",
			"primitives":[
				{
					"attributes":{
						"POSITION":17,
						"NORMAL":18,
						"TEXCOORD_0":19
					},
					"indices":7,
					"material":1
				}
			]
		},
		{
			"name":"Mesh.010",
			"primitives":[
				{
					"attributes":{
						"POSITION":20,
						"NORMAL":21,
						"TEXCOORD_0":22
					},
					"indices":7,
					"material":1
				}
			]
		}
	],
	"textures":[
		{
			"sampler":0,
			"source":0
		},
		{
			"sampler":0,
			"source":0
		},
		{
			"sampler":0,
			"source":1
		},
		{
			"sampler":0,
			"source":2
		}
	],
	"images":[
		{
			"mimeType":"image/jpeg",
			"name":"LiveTeachEXP_KitchenUtensils_Albedo",
			"uri":"LiveTeachEXP_KitchenUtensils_Albedo.jpg"
		},
		{
			"mimeType":"image/png",
			"name":"LiveTeachEXP_KitchenUtensils_Metal-LiveTeachEXP_KitchenUten",
			"uri":"LiveTeachEXP_KitchenUtensils_Metal-LiveTeachEXP_KitchenUten.png"
		},
		{
			"mimeType":"image/jpeg",
			"name":"LiveTeachEXP_FoodItems_Albedo",
			"uri":"LiveTeachEXP_FoodItems_Albedo.jpg"
		}
	],
	"accessors":[
		{
			"bufferView":0,
			"componentType":5126,
			"count":634,
			"max":[
				19.654884338378906,
				19.654891967773438,
				-0.043210506439208984
			],
			"min":[
				-19.654884338378906,
				-19.654891967773438,
				-21.46393585205078
			],
			"type":"VEC3"
		},
		{
			"bufferView":1,
			"componentType":5126,
			"count":634,
			"type":"VEC3"
		},
		{
			"bufferView":2,
			"componentType":5126,
			"count":634,
			"type":"VEC2"
		},
		{
			"bufferView":3,
			"componentType":5123,
			"count":936,
			"type":"SCALAR"
		},
		{
			"bufferView":4,
			"componentType":5126,
			"count":137,
			"max":[
				2.5220208168029785,
				2.4412662982940674,
				3.752932071685791
			],
			"min":[
				-2.647763729095459,
				-2.5989253520965576,
				-4.1985907554626465
			],
			"type":"VEC3"
		},
		{
			"bufferView":5,
			"componentType":5126,
			"count":137,
			"type":"VEC3"
		},
		{
			"bufferView":6,
			"componentType":5126,
			"count":137,
			"type":"VEC2"
		},
		{
			"bufferView":7,
			"componentType":5123,
			"count":756,
			"type":"SCALAR"
		},
		{
			"bufferView":8,
			"componentType":5126,
			"count":137,
			"max":[
				2.522021532058716,
				2.4412662982940674,
				3.752932071685791
			],
			"min":[
				-2.6477630138397217,
				-2.5989253520965576,
				-4.1985907554626465
			],
			"type":"VEC3"
		},
		{
			"bufferView":9,
			"componentType":5126,
			"count":137,
			"type":"VEC3"
		},
		{
			"bufferView":10,
			"componentType":5126,
			"count":137,
			"type":"VEC2"
		},
		{
			"bufferView":11,
			"componentType":5126,
			"count":137,
			"max":[
				2.522019386291504,
				2.4412662982940674,
				3.752932071685791
			],
			"min":[
				-2.6477651596069336,
				-2.5989253520965576,
				-4.1985907554626465
			],
			"type":"VEC3"
		},
		{
			"bufferView":12,
			"componentType":5126,
			"count":137,
			"type":"VEC3"
		},
		{
			"bufferView":13,
			"componentType":5126,
			"count":137,
			"type":"VEC2"
		},
		{
			"bufferView":14,
			"componentType":5126,
			"count":137,
			"max":[
				2.522019386291504,
				2.441265344619751,
				3.752932071685791
			],
			"min":[
				-2.6477651596069336,
				-2.598926305770874,
				-4.1985907554626465
			],
			"type":"VEC3"
		},
		{
			"bufferView":15,
			"componentType":5126,
			"count":137,
			"type":"VEC3"
		},
		{
			"bufferView":16,
			"componentType":5126,
			"count":137,
			"type":"VEC2"
		},
		{
			"bufferView":17,
			"componentType":5126,
			"count":137,
			"max":[
				2.522021532058716,
				2.441265344619751,
				3.752932071685791
			],
			"min":[
				-2.6477630138397217,
				-2.598926305770874,
				-4.1985907554626465
			],
			"type":"VEC3"
		},
		{
			"bufferView":18,
			"componentType":5126,
			"count":137,
			"type":"VEC3"
		},
		{
			"bufferView":19,
			"componentType":5126,
			"count":137,
			"type":"VEC2"
		},
		{
			"bufferView":20,
			"componentType":5126,
			"count":137,
			"max":[
				2.5220208168029785,
				2.441265344619751,
				3.752932071685791
			],
			"min":[
				-2.647763729095459,
				-2.598926305770874,
				-4.1985907554626465
			],
			"type":"VEC3"
		},
		{
			"bufferView":21,
			"componentType":5126,
			"count":137,
			"type":"VEC3"
		},
		{
			"bufferView":22,
			"componentType":5126,
			"count":137,
			"type":"VEC2"
		}
	],
	"bufferViews":[
		{
			"buffer":0,
			"byteLength":7608,
			"byteOffset":0,
			"target":34962
		},
		{
			"buffer":0,
			"byteLength":7608,
			"byteOffset":7608,
			"target":34962
		},
		{
			"buffer":0,
			"byteLength":5072,
			"byteOffset":15216,
			"target":34962
		},
		{
			"buffer":0,
			"byteLength":1872,
			"byteOffset":20288,
			"target":34963
		},
		{
			"buffer":0,
			"byteLength":1644,
			"byteOffset":22160,
			"target":34962
		},
		{
			"buffer":0,
			"byteLength":1644,
			"byteOffset":23804,
			"target":34962
		},
		{
			"buffer":0,
			"byteLength":1096,
			"byteOffset":25448,
			"target":34962
		},
		{
			"buffer":0,
			"byteLength":1512,
			"byteOffset":26544,
			"target":34963
		},
		{
			"buffer":0,
			"byteLength":1644,
			"byteOffset":28056,
			"target":34962
		},
		{
			"buffer":0,
			"byteLength":1644,
			"byteOffset":29700,
			"target":34962
		},
		{
			"buffer":0,
			"byteLength":1096,
			"byteOffset":31344,
			"target":34962
		},
		{
			"buffer":0,
			"byteLength":1644,
			"byteOffset":32440,
			"target":34962
		},
		{
			"buffer":0,
			"byteLength":1644,
			"byteOffset":34084,
			"target":34962
		},
		{
			"buffer":0,
			"byteLength":1096,
			"byteOffset":35728,
			"target":34962
		},
		{
			"buffer":0,
			"byteLength":1644,
			"byteOffset":36824,
			"target":34962
		},
		{
			"buffer":0,
			"byteLength":1644,
			"byteOffset":38468,
			"target":34962
		},
		{
			"buffer":0,
			"byteLength":1096,
			"byteOffset":40112,
			"target":34962
		},
		{
			"buffer":0,
			"byteLength":1644,
			"byteOffset":41208,
			"target":34962
		},
		{
			"buffer":0,
			"byteLength":1644,
			"byteOffset":42852,
			"target":34962
		},
		{
			"buffer":0,
			"byteLength":1096,
			"byteOffset":44496,
			"target":34962
		},
		{
			"buffer":0,
			"byteLength":1644,
			"byteOffset":45592,
			"target":34962
		},
		{
			"buffer":0,
			"byteLength":1644,
			"byteOffset":47236,
			"target":34962
		},
		{
			"buffer":0,
			"byteLength":1096,
			"byteOffset":48880,
			"target":34962
		}
	],
	"samplers":[
		{
			"magFilter":9729,
			"minFilter":9729
		}
	],
	"buffers":[
		{
			"byteLength":49976,
			"uri":"mixingBowlEggs.bin"
		}
	]
}
