{
	"asset":{
		"generator":"Khronos glTF Blender I/O v4.0.44",
		"version":"2.0"
	},
	"extensionsUsed":[
		"KHR_materials_specular",
		"KHR_materials_ior"
	],
	"scene":0,
	"scenes":[
		{
			"name":"Scene",
			"nodes":[
				0,
				1,
				2,
				3,
				4,
				5,
				6,
				7
			]
		}
	],
	"nodes":[
		{
			"mesh":0,
			"name":"MixingBowl",
			"rotation":[
				0.70710688829422,
				0,
				0,
				0.7071066498756409
			],
			"scale":[
				0.009999999776482582,
				0.009999999776482582,
				0.009999999776482582
			]
		},
		{
			"mesh":1,
			"name":"Egg07",
			"rotation":[
				-0.9535661935806274,
				-0.1113153025507927,
				-0.2793598473072052,
				0.016693567857146263
			],
			"scale":[
				0.009999999776482582,
				0.010000004433095455,
				0.010000004433095455
			],
			"translation":[
				-0.049154795706272125,
				0.08034249395132065,
				-0.06572552770376205
			]
		},
		{
			"mesh":2,
			"name":"Egg06",
			"rotation":[
				0.6857157349586487,
				0.31775760650634766,
				0.49067223072052,
				0.43366438150405884
			],
			"scale":[
				0.009999999776482582,
				0.009999998845160007,
				0.009999999776482582
			],
			"translation":[
				0.020580818876624107,
				0.0813298150897026,
				-0.0720938891172409
			]
		},
		{
			"mesh":3,
			"name":"Egg05.001",
			"rotation":[
				0.232636958360672,
				0.21680505573749542,
				0.6677425503730774,
				0.6730493903160095
			],
			"scale":[
				0.010000001639127731,
				0.009999999776482582,
				0.009999999776482582
			],
			"translation":[
				0.0740884467959404,
				0.0880948081612587,
				-0.02894694171845913
			]
		},
		{
			"mesh":4,
			"name":"Egg04.001",
			"rotation":[
				0.343465656042099,
				-0.34258022904396057,
				-0.6180868744850159,
				0.6185780167579651
			],
			"scale":[
				0.010000000707805157,
				0.010000001639127731,
				0.009999999776482582
			],
			"translation":[
				0.06957186758518219,
				0.07847101986408234,
				0.06387555599212646
			]
		},
		{
			"mesh":5,
			"name":"Egg03.001",
			"rotation":[
				0.032856348901987076,
				-0.38874876499176025,
				-0.45889508724212646,
				0.7982544898986816
			],
			"scale":[
				0.010000000707805157,
				0.009999999776482582,
				0.009999999776482582
			],
			"translation":[
				-0.06346774101257324,
				0.08000065386295319,
				0.07317239791154861
			]
		},
		{
			"mesh":6,
			"name":"Egg02.001",
			"rotation":[
				0.5811184048652649,
				0.40286651253700256,
				0.40286651253700256,
				0.5811183452606201
			],
			"scale":[
				0.009999999776482582,
				0.010000000707805157,
				0.009999999776482582
			],
			"translation":[
				-0.06488846987485886,
				0.0683816447854042,
				0.006188335828483105
			]
		},
		{
			"mesh":7,
			"name":"Cone",
			"scale":[
				0.1406097412109375,
				0.1406097412109375,
				0.1406097412109375
			],
			"translation":[
				0,
				0.2218143343925476,
				0
			]
		}
	],
	"materials":[
		{
			"doubleSided":true,
			"emissiveFactor":[
				0.20000000298023224,
				0.20000000298023224,
				0.20000000298023224
			],
			"emissiveTexture":{
				"index":0
			},
			"extensions":{
				"KHR_materials_specular":{
					"specularColorFactor":[
						0.9485430717468262,
						0.9485430717468262,
						0.9485430717468262
					]
				},
				"KHR_materials_ior":{
					"ior":1.4500000476837158
				}
			},
			"name":"LiveTeachEXP_KitchenUtensils.006",
			"pbrMetallicRoughness":{
				"baseColorTexture":{
					"index":1
				},
				"metallicRoughnessTexture":{
					"index":2
				}
			}
		},
		{
			"extensions":{
				"KHR_materials_specular":{
					"specularColorFactor":[
						0.0,
						0.0,
						0.0
					]
				},
				"KHR_materials_ior":{
					"ior":1.4500000476837158
				}
			},
			"name":"LiveTeachEXP_FoodItems.002",
			"pbrMetallicRoughness":{
				"baseColorTexture":{
					"index":3
				},
				"metallicFactor":0
			}
		},
		{
			"doubleSided":true,
			"name":"sugar.001",
			"pbrMetallicRoughness":{
				"baseColorTexture":{
					"index":4
				},
				"metallicFactor":0,
				"roughnessFactor":0.5
			}
		}
	],
	"meshes":[
		{
			"name":"Mesh.007",
			"primitives":[
				{
					"attributes":{
						"POSITION":0,
						"NORMAL":1,
						"TEXCOORD_0":2
					},
					"indices":3,
					"material":0
				}
			]
		},
		{
			"name":"Mesh.008",
			"primitives":[
				{
					"attributes":{
						"POSITION":4,
						"NORMAL":5,
						"TEXCOORD_0":6
					},
					"indices":7,
					"material":1
				}
			]
		},
		{
			"name":"Mesh.009",
			"primitives":[
				{
					"attributes":{
						"POSITION":8,
						"NORMAL":9,
						"TEXCOORD_0":10
					},
					"indices":7,
					"material":1
				}
			]
		},
		{
			"name":"Mesh.011",
			"primitives":[
				{
					"attributes":{
						"POSITION":11,
						"NORMAL":12,
						"TEXCOORD_0":13
					},
					"indices":7,
					"material":1
				}
			]
		},
		{
			"name":"Mesh.012",
			"primitives":[
				{
					"attributes":{
						"POSITION":14,
						"NORMAL":15,
						"TEXCOORD_0":16
					},
					"indices":7,
					"material":1
				}
			]
		},
		{
			"name":"Mesh.013",
			"primitives":[
				{
					"attributes":{
						"POSITION":17,
						"NORMAL":18,
						"TEXCOORD_0":19
					},
					"indices":7,
					"material":1
				}
			]
		},
		{
			"name":"Mesh.019",
			"primitives":[
				{
					"attributes":{
						"POSITION":20,
						"NORMAL":21,
						"TEXCOORD_0":22
					},
					"indices":7,
					"material":1
				}
			]
		},
		{
			"name":"Cone.001",
			"primitives":[
				{
					"attributes":{
						"POSITION":23,
						"NORMAL":24,
						"TEXCOORD_0":25
					},
					"indices":26,
					"material":2
				}
			]
		}
	],
	"textures":[
		{
			"sampler":0,
			"source":0
		},
		{
			"sampler":0,
			"source":0
		},
		{
			"sampler":0,
			"source":1
		},
		{
			"sampler":0,
			"source":2
		},
		{
			"sampler":0,
			"source":3
		}
	],
	"images":[
		{
			"mimeType":"image/jpeg",
			"name":"LiveTeachEXP_KitchenUtensils_Albedo",
			"uri":"LiveTeachEXP_KitchenUtensils_Albedo.jpg"
		},
		{
			"mimeType":"image/png",
			"name":"LiveTeachEXP_KitchenUtensils_Metal-LiveTeachEXP_KitchenUten",
			"uri":"LiveTeachEXP_KitchenUtensils_Metal-LiveTeachEXP_KitchenUten.png"
		},
		{
			"mimeType":"image/jpeg",
			"name":"LiveTeachEXP_FoodItems_Albedo",
			"uri":"LiveTeachEXP_FoodItems_Albedo.jpg"
		},
		{
			"mimeType":"image/jpeg",
			"name":"sugar",
			"uri":"sugar.jpg"
		}
	],
	"accessors":[
		{
			"bufferView":0,
			"componentType":5126,
			"count":634,
			"max":[
				19.654884338378906,
				19.654891967773438,
				-0.043210506439208984
			],
			"min":[
				-19.654884338378906,
				-19.654891967773438,
				-21.46393585205078
			],
			"type":"VEC3"
		},
		{
			"bufferView":1,
			"componentType":5126,
			"count":634,
			"type":"VEC3"
		},
		{
			"bufferView":2,
			"componentType":5126,
			"count":634,
			"type":"VEC2"
		},
		{
			"bufferView":3,
			"componentType":5123,
			"count":936,
			"type":"SCALAR"
		},
		{
			"bufferView":4,
			"componentType":5126,
			"count":137,
			"max":[
				2.5220208168029785,
				2.4412662982940674,
				3.752932071685791
			],
			"min":[
				-2.647763729095459,
				-2.5989253520965576,
				-4.1985907554626465
			],
			"type":"VEC3"
		},
		{
			"bufferView":5,
			"componentType":5126,
			"count":137,
			"type":"VEC3"
		},
		{
			"bufferView":6,
			"componentType":5126,
			"count":137,
			"type":"VEC2"
		},
		{
			"bufferView":7,
			"componentType":5123,
			"count":756,
			"type":"SCALAR"
		},
		{
			"bufferView":8,
			"componentType":5126,
			"count":137,
			"max":[
				2.522022008895874,
				2.4412662982940674,
				3.752932071685791
			],
			"min":[
				-2.6477625370025635,
				-2.5989253520965576,
				-4.1985907554626465
			],
			"type":"VEC3"
		},
		{
			"bufferView":9,
			"componentType":5126,
			"count":137,
			"type":"VEC3"
		},
		{
			"bufferView":10,
			"componentType":5126,
			"count":137,
			"type":"VEC2"
		},
		{
			"bufferView":11,
			"componentType":5126,
			"count":137,
			"max":[
				2.522019386291504,
				2.4412662982940674,
				3.752932071685791
			],
			"min":[
				-2.6477651596069336,
				-2.5989253520965576,
				-4.1985907554626465
			],
			"type":"VEC3"
		},
		{
			"bufferView":12,
			"componentType":5126,
			"count":137,
			"type":"VEC3"
		},
		{
			"bufferView":13,
			"componentType":5126,
			"count":137,
			"type":"VEC2"
		},
		{
			"bufferView":14,
			"componentType":5126,
			"count":137,
			"max":[
				2.522019386291504,
				2.441265344619751,
				3.752932071685791
			],
			"min":[
				-2.6477651596069336,
				-2.598926305770874,
				-4.1985907554626465
			],
			"type":"VEC3"
		},
		{
			"bufferView":15,
			"componentType":5126,
			"count":137,
			"type":"VEC3"
		},
		{
			"bufferView":16,
			"componentType":5126,
			"count":137,
			"type":"VEC2"
		},
		{
			"bufferView":17,
			"componentType":5126,
			"count":137,
			"max":[
				2.522022008895874,
				2.441265344619751,
				3.752932071685791
			],
			"min":[
				-2.6477625370025635,
				-2.598926305770874,
				-4.1985907554626465
			],
			"type":"VEC3"
		},
		{
			"bufferView":18,
			"componentType":5126,
			"count":137,
			"type":"VEC3"
		},
		{
			"bufferView":19,
			"componentType":5126,
			"count":137,
			"type":"VEC2"
		},
		{
			"bufferView":20,
			"componentType":5126,
			"count":137,
			"max":[
				2.5220208168029785,
				2.441265344619751,
				3.752932071685791
			],
			"min":[
				-2.647763729095459,
				-2.598926305770874,
				-4.1985907554626465
			],
			"type":"VEC3"
		},
		{
			"bufferView":21,
			"componentType":5126,
			"count":137,
			"type":"VEC3"
		},
		{
			"bufferView":22,
			"componentType":5126,
			"count":137,
			"type":"VEC2"
		},
		{
			"bufferView":23,
			"componentType":5126,
			"count":160,
			"max":[
				0.529295027256012,
				-0.7931349873542786,
				0.529295027256012
			],
			"min":[
				-0.529295027256012,
				-1.2288192510604858,
				-0.529295027256012
			],
			"type":"VEC3"
		},
		{
			"bufferView":24,
			"componentType":5126,
			"count":160,
			"type":"VEC3"
		},
		{
			"bufferView":25,
			"componentType":5126,
			"count":160,
			"type":"VEC2"
		},
		{
			"bufferView":26,
			"componentType":5123,
			"count":948,
			"type":"SCALAR"
		}
	],
	"bufferViews":[
		{
			"buffer":0,
			"byteLength":7608,
			"byteOffset":0,
			"target":34962
		},
		{
			"buffer":0,
			"byteLength":7608,
			"byteOffset":7608,
			"target":34962
		},
		{
			"buffer":0,
			"byteLength":5072,
			"byteOffset":15216,
			"target":34962
		},
		{
			"buffer":0,
			"byteLength":1872,
			"byteOffset":20288,
			"target":34963
		},
		{
			"buffer":0,
			"byteLength":1644,
			"byteOffset":22160,
			"target":34962
		},
		{
			"buffer":0,
			"byteLength":1644,
			"byteOffset":23804,
			"target":34962
		},
		{
			"buffer":0,
			"byteLength":1096,
			"byteOffset":25448,
			"target":34962
		},
		{
			"buffer":0,
			"byteLength":1512,
			"byteOffset":26544,
			"target":34963
		},
		{
			"buffer":0,
			"byteLength":1644,
			"byteOffset":28056,
			"target":34962
		},
		{
			"buffer":0,
			"byteLength":1644,
			"byteOffset":29700,
			"target":34962
		},
		{
			"buffer":0,
			"byteLength":1096,
			"byteOffset":31344,
			"target":34962
		},
		{
			"buffer":0,
			"byteLength":1644,
			"byteOffset":32440,
			"target":34962
		},
		{
			"buffer":0,
			"byteLength":1644,
			"byteOffset":34084,
			"target":34962
		},
		{
			"buffer":0,
			"byteLength":1096,
			"byteOffset":35728,
			"target":34962
		},
		{
			"buffer":0,
			"byteLength":1644,
			"byteOffset":36824,
			"target":34962
		},
		{
			"buffer":0,
			"byteLength":1644,
			"byteOffset":38468,
			"target":34962
		},
		{
			"buffer":0,
			"byteLength":1096,
			"byteOffset":40112,
			"target":34962
		},
		{
			"buffer":0,
			"byteLength":1644,
			"byteOffset":41208,
			"target":34962
		},
		{
			"buffer":0,
			"byteLength":1644,
			"byteOffset":42852,
			"target":34962
		},
		{
			"buffer":0,
			"byteLength":1096,
			"byteOffset":44496,
			"target":34962
		},
		{
			"buffer":0,
			"byteLength":1644,
			"byteOffset":45592,
			"target":34962
		},
		{
			"buffer":0,
			"byteLength":1644,
			"byteOffset":47236,
			"target":34962
		},
		{
			"buffer":0,
			"byteLength":1096,
			"byteOffset":48880,
			"target":34962
		},
		{
			"buffer":0,
			"byteLength":1920,
			"byteOffset":49976,
			"target":34962
		},
		{
			"buffer":0,
			"byteLength":1920,
			"byteOffset":51896,
			"target":34962
		},
		{
			"buffer":0,
			"byteLength":1280,
			"byteOffset":53816,
			"target":34962
		},
		{
			"buffer":0,
			"byteLength":1896,
			"byteOffset":55096,
			"target":34963
		}
	],
	"samplers":[
		{
			"magFilter":9729,
			"minFilter":9729
		}
	],
	"buffers":[
		{
			"byteLength":56992,
			"uri":"mixingBowlSugarEggs.bin"
		}
	]
}
