{
	"asset":{
		"generator":"Khronos glTF Blender I/O v4.0.44",
		"version":"2.0"
	},
	"extensionsUsed":[
		"KHR_materials_specular",
		"KHR_materials_ior"
	],
	"scene":0,
	"scenes":[
		{
			"name":"Scene",
			"nodes":[
				0,
				1,
				2
			]
		}
	],
	"nodes":[
		{
			"mesh":0,
			"name":"MixingBowl",
			"rotation":[
				0.70710688829422,
				0,
				0,
				0.7071066498756409
			],
			"scale":[
				0.009999999776482582,
				0.009999999776482582,
				0.009999999776482582
			]
		},
		{
			"mesh":1,
			"name":"Butter",
			"rotation":[
				0.31798750162124634,
				-0.055576350539922714,
				-0.6334757804870605,
				0.7032095193862915
			],
			"scale":[
				0.009999999776482582,
				0.009999999776482582,
				0.009999999776482582
			],
			"translation":[
				-0.03387442231178284,
				0.16287387907505035,
				0.04049600288271904
			]
		},
		{
			"mesh":2,
			"name":"Cylinder",
			"scale":[
				0.17560184001922607,
				0.14783942699432373,
				0.17560184001922607
			],
			"translation":[
				0,
				0.050671424716711044,
				0
			]
		}
	],
	"animations":[
		{
			"channels":[
				{
					"sampler":0,
					"target":{
						"node":1,
						"path":"translation"
					}
				},
				{
					"sampler":1,
					"target":{
						"node":1,
						"path":"rotation"
					}
				},
				{
					"sampler":2,
					"target":{
						"node":1,
						"path":"scale"
					}
				}
			],
			"name":"ButterAction",
			"samplers":[
				{
					"input":12,
					"interpolation":"LINEAR",
					"output":13
				},
				{
					"input":12,
					"interpolation":"LINEAR",
					"output":14
				},
				{
					"input":15,
					"interpolation":"STEP",
					"output":16
				}
			]
		}
	],
	"materials":[
		{
			"doubleSided":true,
			"emissiveFactor":[
				0.20000000298023224,
				0.20000000298023224,
				0.20000000298023224
			],
			"emissiveTexture":{
				"index":0
			},
			"extensions":{
				"KHR_materials_specular":{
					"specularColorFactor":[
						0.9485430717468262,
						0.9485430717468262,
						0.9485430717468262
					]
				},
				"KHR_materials_ior":{
					"ior":1.4500000476837158
				}
			},
			"name":"LiveTeachEXP_KitchenUtensils.004",
			"pbrMetallicRoughness":{
				"baseColorTexture":{
					"index":1
				},
				"metallicRoughnessTexture":{
					"index":2
				}
			}
		},
		{
			"extensions":{
				"KHR_materials_specular":{
					"specularColorFactor":[
						0.0,
						0.0,
						0.0
					]
				},
				"KHR_materials_ior":{
					"ior":1.4500000476837158
				}
			},
			"name":"LiveTeachEXP_FoodItems.009",
			"pbrMetallicRoughness":{
				"baseColorTexture":{
					"index":3
				},
				"metallicFactor":0
			}
		},
		{
			"doubleSided":true,
			"emissiveFactor":[
				0.20000000298023224,
				0.20000000298023224,
				0.20000000298023224
			],
			"emissiveTexture":{
				"index":4
			},
			"name":"Cream.001",
			"pbrMetallicRoughness":{
				"baseColorTexture":{
					"index":5
				},
				"metallicFactor":0.25909093022346497,
				"roughnessFactor":0.33636364340782166
			}
		}
	],
	"meshes":[
		{
			"name":"Mesh.036",
			"primitives":[
				{
					"attributes":{
						"POSITION":0,
						"NORMAL":1,
						"TEXCOORD_0":2
					},
					"indices":3,
					"material":0
				}
			]
		},
		{
			"name":"Mesh.037",
			"primitives":[
				{
					"attributes":{
						"POSITION":4,
						"NORMAL":5,
						"TEXCOORD_0":6
					},
					"indices":7,
					"material":1
				}
			]
		},
		{
			"name":"Cylinder.001",
			"primitives":[
				{
					"attributes":{
						"POSITION":8,
						"NORMAL":9,
						"TEXCOORD_0":10
					},
					"indices":11,
					"material":2
				}
			]
		}
	],
	"textures":[
		{
			"sampler":0,
			"source":0
		},
		{
			"sampler":0,
			"source":0
		},
		{
			"sampler":0,
			"source":1
		},
		{
			"sampler":0,
			"source":2
		},
		{
			"sampler":0,
			"source":3
		},
		{
			"sampler":0,
			"source":3
		}
	],
	"images":[
		{
			"mimeType":"image/jpeg",
			"name":"LiveTeachEXP_KitchenUtensils_Albedo",
			"uri":"LiveTeachEXP_KitchenUtensils_Albedo.jpg"
		},
		{
			"mimeType":"image/png",
			"name":"LiveTeachEXP_KitchenUtensils_Metal-LiveTeachEXP_KitchenUten",
			"uri":"LiveTeachEXP_KitchenUtensils_Metal-LiveTeachEXP_KitchenUten.png"
		},
		{
			"mimeType":"image/jpeg",
			"name":"LiveTeachEXP_FoodItems_Albedo",
			"uri":"LiveTeachEXP_FoodItems_Albedo.jpg"
		},
		{
			"mimeType":"image/png",
			"name":"lightTexture",
			"uri":"lightTexture.png"
		}
	],
	"accessors":[
		{
			"bufferView":0,
			"componentType":5126,
			"count":634,
			"max":[
				19.654884338378906,
				19.654891967773438,
				-0.043210506439208984
			],
			"min":[
				-19.654884338378906,
				-19.654891967773438,
				-21.46393585205078
			],
			"type":"VEC3"
		},
		{
			"bufferView":1,
			"componentType":5126,
			"count":634,
			"type":"VEC3"
		},
		{
			"bufferView":2,
			"componentType":5126,
			"count":634,
			"type":"VEC2"
		},
		{
			"bufferView":3,
			"componentType":5123,
			"count":936,
			"type":"SCALAR"
		},
		{
			"bufferView":4,
			"componentType":5126,
			"count":62,
			"max":[
				6.890667915344238,
				2.779334783554077,
				-0.035964012145996094
			],
			"min":[
				-6.890667915344238,
				-2.779337167739868,
				-7.907718658447266
			],
			"type":"VEC3"
		},
		{
			"bufferView":5,
			"componentType":5126,
			"count":62,
			"type":"VEC3"
		},
		{
			"bufferView":6,
			"componentType":5126,
			"count":62,
			"type":"VEC2"
		},
		{
			"bufferView":7,
			"componentType":5123,
			"count":240,
			"type":"SCALAR"
		},
		{
			"bufferView":8,
			"componentType":5126,
			"count":12,
			"max":[
				0.973084032535553,
				0.8131216764450073,
				0.973084032535553
			],
			"min":[
				-0.973084032535553,
				0.8131216764450073,
				-0.973084032535553
			],
			"type":"VEC3"
		},
		{
			"bufferView":9,
			"componentType":5126,
			"count":12,
			"type":"VEC3"
		},
		{
			"bufferView":10,
			"componentType":5126,
			"count":12,
			"type":"VEC2"
		},
		{
			"bufferView":11,
			"componentType":5123,
			"count":30,
			"type":"SCALAR"
		},
		{
			"bufferView":12,
			"componentType":5126,
			"count":194,
			"max":[
				8.083333333333334
			],
			"min":[
				0.041666666666666664
			],
			"type":"SCALAR"
		},
		{
			"bufferView":13,
			"componentType":5126,
			"count":194,
			"type":"VEC3"
		},
		{
			"bufferView":14,
			"componentType":5126,
			"count":194,
			"type":"VEC4"
		},
		{
			"bufferView":15,
			"componentType":5126,
			"count":2,
			"max":[
				8.083333333333334
			],
			"min":[
				0.041666666666666664
			],
			"type":"SCALAR"
		},
		{
			"bufferView":16,
			"componentType":5126,
			"count":2,
			"type":"VEC3"
		}
	],
	"bufferViews":[
		{
			"buffer":0,
			"byteLength":7608,
			"byteOffset":0,
			"target":34962
		},
		{
			"buffer":0,
			"byteLength":7608,
			"byteOffset":7608,
			"target":34962
		},
		{
			"buffer":0,
			"byteLength":5072,
			"byteOffset":15216,
			"target":34962
		},
		{
			"buffer":0,
			"byteLength":1872,
			"byteOffset":20288,
			"target":34963
		},
		{
			"buffer":0,
			"byteLength":744,
			"byteOffset":22160,
			"target":34962
		},
		{
			"buffer":0,
			"byteLength":744,
			"byteOffset":22904,
			"target":34962
		},
		{
			"buffer":0,
			"byteLength":496,
			"byteOffset":23648,
			"target":34962
		},
		{
			"buffer":0,
			"byteLength":480,
			"byteOffset":24144,
			"target":34963
		},
		{
			"buffer":0,
			"byteLength":144,
			"byteOffset":24624,
			"target":34962
		},
		{
			"buffer":0,
			"byteLength":144,
			"byteOffset":24768,
			"target":34962
		},
		{
			"buffer":0,
			"byteLength":96,
			"byteOffset":24912,
			"target":34962
		},
		{
			"buffer":0,
			"byteLength":60,
			"byteOffset":25008,
			"target":34963
		},
		{
			"buffer":0,
			"byteLength":776,
			"byteOffset":25068
		},
		{
			"buffer":0,
			"byteLength":2328,
			"byteOffset":25844
		},
		{
			"buffer":0,
			"byteLength":3104,
			"byteOffset":28172
		},
		{
			"buffer":0,
			"byteLength":8,
			"byteOffset":31276
		},
		{
			"buffer":0,
			"byteLength":24,
			"byteOffset":31284
		}
	],
	"samplers":[
		{
			"magFilter":9729,
			"minFilter":9729
		}
	],
	"buffers":[
		{
			"byteLength":31308,
			"uri":"mixingBowlButtered.bin"
		}
	]
}
