{
	"asset":{
		"generator":"Khronos glTF Blender I/O v4.0.44",
		"version":"2.0"
	},
	"extensionsUsed":[
		"KHR_materials_specular",
		"KHR_materials_ior"
	],
	"scene":0,
	"scenes":[
		{
			"name":"Scene",
			"nodes":[
				0
			]
		}
	],
	"nodes":[
		{
			"mesh":0,
			"name":"Spatula",
			"rotation":[
				0.011038321070373058,
				0.8634248375892639,
				-0.0037147868424654007,
				0.5043430328369141
			],
			"scale":[
				0.009999999776482582,
				0.009999999776482582,
				0.009999999776482582
			],
			"translation":[
				0.000325706583680585,
				0.014276132918894291,
				6.739199307048693e-05
			]
		}
	],
	"materials":[
		{
			"doubleSided":true,
			"extensions":{
				"KHR_materials_specular":{
					"specularFactor":0.800000011920929
				},
				"KHR_materials_ior":{
					"ior":1.4500000476837158
				}
			},
			"name":"LiveTeachEXP_KitchenUtensils.008",
			"pbrMetallicRoughness":{
				"baseColorTexture":{
					"index":0
				},
				"metallicRoughnessTexture":{
					"index":1
				}
			}
		}
	],
	"meshes":[
		{
			"name":"Mesh.021",
			"primitives":[
				{
					"attributes":{
						"POSITION":0,
						"NORMAL":1,
						"TEXCOORD_0":2
					},
					"indices":3,
					"material":0
				}
			]
		}
	],
	"textures":[
		{
			"sampler":0,
			"source":0
		},
		{
			"sampler":0,
			"source":1
		}
	],
	"images":[
		{
			"mimeType":"image/jpeg",
			"name":"LiveTeachEXP_KitchenUtensils_Albedo",
			"uri":"LiveTeachEXP_KitchenUtensils_Albedo.jpg"
		},
		{
			"mimeType":"image/png",
			"name":"LiveTeachEXP_KitchenUtensils_Metal",
			"uri":"LiveTeachEXP_KitchenUtensils_Metal.png"
		}
	],
	"accessors":[
		{
			"bufferView":0,
			"componentType":5126,
			"count":335,
			"max":[
				3.0897903442382812,
				1.505035400390625,
				15.815438270568848
			],
			"min":[
				-3.089794397354126,
				-1.5050506591796875,
				-15.815438270568848
			],
			"type":"VEC3"
		},
		{
			"bufferView":1,
			"componentType":5126,
			"count":335,
			"type":"VEC3"
		},
		{
			"bufferView":2,
			"componentType":5126,
			"count":335,
			"type":"VEC2"
		},
		{
			"bufferView":3,
			"componentType":5123,
			"count":840,
			"type":"SCALAR"
		}
	],
	"bufferViews":[
		{
			"buffer":0,
			"byteLength":4020,
			"byteOffset":0,
			"target":34962
		},
		{
			"buffer":0,
			"byteLength":4020,
			"byteOffset":4020,
			"target":34962
		},
		{
			"buffer":0,
			"byteLength":2680,
			"byteOffset":8040,
			"target":34962
		},
		{
			"buffer":0,
			"byteLength":1680,
			"byteOffset":10720,
			"target":34963
		}
	],
	"samplers":[
		{
			"magFilter":9729,
			"minFilter":9729
		}
	],
	"buffers":[
		{
			"byteLength":12400,
			"uri":"spatula.bin"
		}
	]
}
