{
	"asset":{
		"generator":"Khronos glTF Blender I/O v4.0.44",
		"version":"2.0"
	},
	"extensionsUsed":[
		"KHR_materials_specular",
		"KHR_materials_ior"
	],
	"scene":0,
	"scenes":[
		{
			"name":"Scene",
			"nodes":[
				0
			]
		}
	],
	"nodes":[
		{
			"mesh":0,
			"name":"Whisk"
		}
	],
	"materials":[
		{
			"doubleSided":true,
			"extensions":{
				"KHR_materials_specular":{
					"specularFactor":0.800000011920929
				},
				"KHR_materials_ior":{
					"ior":1.4500000476837158
				}
			},
			"name":"LiveTeachEXP_KitchenUtensils.009",
			"pbrMetallicRoughness":{
				"baseColorTexture":{
					"index":0
				},
				"metallicRoughnessTexture":{
					"index":1
				}
			}
		}
	],
	"meshes":[
		{
			"name":"Mesh.022",
			"primitives":[
				{
					"attributes":{
						"POSITION":0,
						"NORMAL":1,
						"TEXCOORD_0":2
					},
					"indices":3,
					"material":0
				}
			]
		}
	],
	"textures":[
		{
			"sampler":0,
			"source":0
		},
		{
			"sampler":0,
			"source":1
		}
	],
	"images":[
		{
			"mimeType":"image/jpeg",
			"name":"LiveTeachEXP_KitchenUtensils_Albedo",
			"uri":"LiveTeachEXP_KitchenUtensils_Albedo.jpg"
		},
		{
			"mimeType":"image/png",
			"name":"LiveTeachEXP_KitchenUtensils_Metal",
			"uri":"LiveTeachEXP_KitchenUtensils_Metal.png"
		}
	],
	"accessors":[
		{
			"bufferView":0,
			"componentType":5126,
			"count":1348,
			"max":[
				0.14407894015312195,
				0.08183097094297409,
				0.0946580022573471
			],
			"min":[
				-0.14767062664031982,
				-0.00016417168080806732,
				-0.07881466299295425
			],
			"type":"VEC3"
		},
		{
			"bufferView":1,
			"componentType":5126,
			"count":1348,
			"type":"VEC3"
		},
		{
			"bufferView":2,
			"componentType":5126,
			"count":1348,
			"type":"VEC2"
		},
		{
			"bufferView":3,
			"componentType":5123,
			"count":3216,
			"type":"SCALAR"
		}
	],
	"bufferViews":[
		{
			"buffer":0,
			"byteLength":16176,
			"byteOffset":0,
			"target":34962
		},
		{
			"buffer":0,
			"byteLength":16176,
			"byteOffset":16176,
			"target":34962
		},
		{
			"buffer":0,
			"byteLength":10784,
			"byteOffset":32352,
			"target":34962
		},
		{
			"buffer":0,
			"byteLength":6432,
			"byteOffset":43136,
			"target":34963
		}
	],
	"samplers":[
		{
			"magFilter":9729,
			"minFilter":9729
		}
	],
	"buffers":[
		{
			"byteLength":49568,
			"uri":"whisk.bin"
		}
	]
}
